<svg xmlns="http://www.w3.org/2000/svg" viewBox="0 0 1024 1024" width="1024" height="1024">
  <defs>
    <radialGradient id="bg" cx="50%" cy="40%" r="65%">
      <stop offset="0%" stop-color="#ffffff"/>
      <stop offset="100%" stop-color="#ecfdf5"/>
    </radialGradient>
    <linearGradient id="ring" x1="0" y1="0" x2="0" y2="1">
      <stop offset="0%" stop-color="#16a34a"/>
      <stop offset="100%" stop-color="#0e7c39"/>
    </linearGradient>
    <linearGradient id="book" x1="0" y1="0" x2="0" y2="1">
      <stop offset="0%" stop-color="#fef3c7"/>
      <stop offset="100%" stop-color="#fcd34d"/>
    </linearGradient>
    <linearGradient id="leaf1" x1="0" y1="0" x2="1" y2="1">
      <stop offset="0%" stop-color="#86efac"/>
      <stop offset="100%" stop-color="#16a34a"/>
    </linearGradient>
    <linearGradient id="leaf2" x1="1" y1="0" x2="0" y2="1">
      <stop offset="0%" stop-color="#a7f3d0"/>
      <stop offset="100%" stop-color="#16a34a"/>
    </linearGradient>
    <filter id="shadow" x="-20%" y="-20%" width="140%" height="140%">
      <feGaussianBlur in="SourceAlpha" stdDeviation="6"/>
      <feOffset dx="0" dy="6"/>
      <feComponentTransfer><feFuncA type="linear" slope="0.25"/></feComponentTransfer>
      <feMerge><feMergeNode/><feMergeNode in="SourceGraphic"/></feMerge>
    </filter>
    <path id="ct-top" d="M 512 512 m -380 0 a 380 380 0 1 1 760 0" fill="none"/>
    <path id="ct-bot" d="M 512 512 m -380 0 a 380 380 0 1 0 760 0" fill="none"/>
  </defs>
  <circle cx="512" cy="512" r="500" fill="url(#ring)"/>
  <circle cx="512" cy="512" r="430" fill="url(#bg)"/>
  <circle cx="512" cy="512" r="430" fill="none" stroke="#16a34a" stroke-width="4" opacity="0.3"/>
  <text font-family="'Be Vietnam Pro','Segoe UI',Tahoma,sans-serif" font-weight="700" font-size="46" fill="#14532d" letter-spacing="6">
    <textPath href="#ct-top" startOffset="50%" text-anchor="middle">TRƯỜNG TIỂU HỌC THÁI SƠN</textPath>
  </text>
  <text font-family="'Be Vietnam Pro','Segoe UI',Tahoma,sans-serif" font-weight="600" font-size="38" fill="#166534" letter-spacing="8">
    <textPath href="#ct-bot" startOffset="50%" text-anchor="middle">XÃ VĂN HIẾN · TỈNH NGHỆ AN</textPath>
  </text>
  <g filter="url(#shadow)" transform="translate(512 520)">
    <g opacity="0.7">
      <circle cx="0" cy="-110" r="58" fill="#fde047"/>
      <g stroke="#fbbf24" stroke-width="6" stroke-linecap="round">
        <line x1="0" y1="-200" x2="0" y2="-180"/>
        <line x1="0" y1="-40" x2="0" y2="-20"/>
        <line x1="-90" y1="-110" x2="-72" y2="-110"/>
        <line x1="72" y1="-110" x2="90" y2="-110"/>
        <line x1="-65" y1="-175" x2="-52" y2="-162"/>
        <line x1="52" y1="-162" x2="65" y2="-175"/>
        <line x1="-65" y1="-45" x2="-52" y2="-58"/>
        <line x1="52" y1="-58" x2="65" y2="-45"/>
      </g>
    </g>
    <ellipse cx="0" cy="155" rx="240" ry="20" fill="#0c5da5" opacity="0.15"/>
    <path d="M -210 -40 Q -210 -70 -180 -70 L -10 -70 Q 0 -70 0 -50 L 0 130 Q 0 150 -20 150 L -190 150 Q -210 150 -210 130 Z" fill="url(#book)" stroke="#92400e" stroke-width="3"/>
    <path d="M 210 -40 Q 210 -70 180 -70 L 10 -70 Q 0 -70 0 -50 L 0 130 Q 0 150 20 150 L 190 150 Q 210 150 210 130 Z" fill="url(#book)" stroke="#92400e" stroke-width="3"/>
    <line x1="0" y1="-50" x2="0" y2="145" stroke="#92400e" stroke-width="3"/>
    <g stroke="#b45309" stroke-width="3" stroke-linecap="round" opacity="0.55">
      <line x1="-180" y1="-25" x2="-30" y2="-25"/>
      <line x1="-180" y1="5" x2="-30" y2="5"/>
      <line x1="-180" y1="35" x2="-30" y2="35"/>
      <line x1="-180" y1="65" x2="-30" y2="65"/>
      <line x1="-180" y1="95" x2="-30" y2="95"/>
      <line x1="30" y1="-25" x2="180" y2="-25"/>
      <line x1="30" y1="5" x2="180" y2="5"/>
      <line x1="30" y1="35" x2="180" y2="35"/>
      <line x1="30" y1="65" x2="180" y2="65"/>
      <line x1="30" y1="95" x2="180" y2="95"/>
    </g>
    <path d="M -250 -10 C -290 -50 -280 -110 -220 -120 C -210 -75 -230 -30 -250 -10 Z" fill="url(#leaf1)"/>
    <path d="M 250 -10 C 290 -50 280 -110 220 -120 C 210 -75 230 -30 250 -10 Z" fill="url(#leaf2)"/>
  </g>
  <g transform="translate(512 740)">
    <rect x="-110" y="-22" width="220" height="44" rx="22" fill="#16a34a"/>
    <text x="0" y="9" text-anchor="middle" font-family="'Be Vietnam Pro','Segoe UI',Tahoma,sans-serif" font-weight="700" font-size="24" fill="#ffffff" letter-spacing="3">2025 — 2026</text>
  </g>
</svg>
