<svg xmlns="http://www.w3.org/2000/svg" viewBox="0 0 900 560" width="900" height="560" font-family="Segoe UI, Be Vietnam Pro, sans-serif">
  <rect width="900" height="560" fill="#f8fafc"/>
  <text x="450" y="34" font-size="20" font-weight="700" fill="#1e3a8a" text-anchor="middle">BƯỚC 4: ĐIỀN URL VÀO schools.json + PUSH GITHUB</text>

  <!-- Sub-step 1 -->
  <rect x="50" y="60" width="800" height="44" rx="8" fill="#fff" stroke="#0d9488" stroke-width="2"/>
  <circle cx="80" cy="82" r="14" fill="#0d9488"/>
  <text x="80" y="87" font-size="12" fill="#fff" text-anchor="middle" font-weight="700">1</text>
  <text x="110" y="80" font-size="13" font-weight="700" fill="#0f172a">Mở file schools.json trong dự án local (VS Code / Notepad++)</text>
  <text x="110" y="96" font-size="11" fill="#64748b">Path: D:\XebatcheoTrT\...\THThaiSon_DoLuong\schools.json</text>

  <!-- JSON editor mockup -->
  <rect x="50" y="120" width="800" height="240" rx="8" fill="#1e293b"/>
  <rect x="50" y="120" width="800" height="28" fill="#0f172a"/>
  <text x="65" y="139" font-size="11" fill="#cbd5e1" font-family="monospace">📄 schools.json</text>
  <text x="828" y="139" font-size="11" fill="#94a3b8" text-anchor="end">JSON</text>

  <g font-family="Consolas, monospace" font-size="11.5">
    <text x="65" y="170" fill="#cbd5e1">{</text>
    <text x="80" y="186" fill="#cbd5e1">"version": "1.0",</text>
    <text x="80" y="202" fill="#cbd5e1">"schools": [</text>
    <text x="95" y="218" fill="#cbd5e1">{</text>
    <text x="110" y="234" fill="#fb923c">"code"</text>
    <text x="150" y="234" fill="#cbd5e1">: </text>
    <text x="165" y="234" fill="#86efac">"thaison"</text>
    <text x="225" y="234" fill="#cbd5e1">,</text>
    <text x="110" y="250" fill="#fb923c">"name"</text>
    <text x="150" y="250" fill="#cbd5e1">: </text>
    <text x="165" y="250" fill="#86efac">"Trường Tiểu học Thái Sơn"</text>
    <text x="345" y="250" fill="#cbd5e1">,</text>
    <text x="110" y="266" fill="#fb923c">"xa"</text>
    <text x="135" y="266" fill="#cbd5e1">: </text>
    <text x="150" y="266" fill="#86efac">"Đô Lương"</text>
    <text x="217" y="266" fill="#cbd5e1">,</text>
    <text x="110" y="282" fill="#fb923c">"tinh"</text>
    <text x="148" y="282" fill="#cbd5e1">: </text>
    <text x="163" y="282" fill="#86efac">"Nghệ An"</text>
    <text x="218" y="282" fill="#cbd5e1">,</text>

    <!-- highlighted line -->
    <rect x="60" y="293" width="780" height="20" fill="#fde047" opacity="0.25"/>
    <text x="110" y="306" fill="#fb923c">"apiUrl"</text>
    <text x="165" y="306" fill="#cbd5e1">: </text>
    <text x="180" y="306" fill="#86efac">""</text>
    <text x="195" y="306" fill="#cbd5e1">,</text>
    <text x="220" y="306" fill="#ef4444">← DÁN URL /exec VÀO ĐÂY (giữa 2 dấu ngoặc kép)</text>

    <text x="110" y="322" fill="#fb923c">"active"</text>
    <text x="160" y="322" fill="#cbd5e1">: </text>
    <text x="175" y="322" fill="#7dd3fc">true</text>
    <text x="95" y="338" fill="#cbd5e1">}</text>
    <text x="80" y="354" fill="#cbd5e1">]</text>
  </g>

  <!-- Sub-step 2: git commands -->
  <rect x="50" y="376" width="800" height="44" rx="8" fill="#fff" stroke="#0d9488" stroke-width="2"/>
  <circle cx="80" cy="398" r="14" fill="#0d9488"/>
  <text x="80" y="403" font-size="12" fill="#fff" text-anchor="middle" font-weight="700">2</text>
  <text x="110" y="396" font-size="13" font-weight="700" fill="#0f172a">Mở Terminal trong thư mục dự án</text>
  <text x="110" y="412" font-size="11" fill="#64748b">Right-click thư mục → "Open in Terminal" (Windows 11) HOẶC PowerShell tới folder</text>

  <!-- Terminal commands -->
  <rect x="50" y="430" width="800" height="120" rx="8" fill="#0f172a"/>
  <text x="65" y="450" font-size="11" font-family="monospace" fill="#94a3b8"># Terminal:</text>
  <text x="65" y="470" font-size="12" font-family="monospace" fill="#86efac">$ git add schools.json</text>
  <text x="65" y="490" font-size="12" font-family="monospace" fill="#86efac">$ git commit -m "feat: kích hoạt TH Thái Sơn"</text>
  <text x="65" y="510" font-size="12" font-family="monospace" fill="#86efac">$ git push</text>
  <text x="65" y="538" font-size="11" font-family="monospace" fill="#fbbf24">✓ GitHub Pages tự rebuild sau 30 giây → trường THAÍ SƠN online</text>
</svg>
