<svg xmlns="http://www.w3.org/2000/svg" viewBox="0 0 900 560" width="900" height="560" font-family="Segoe UI, Be Vietnam Pro, sans-serif">
  <rect width="900" height="560" fill="#f8fafc"/>

  <text x="450" y="32" font-size="20" font-weight="700" fill="#1e3a8a" text-anchor="middle">PICKER — TRANG CHỌN TRƯỜNG</text>
  <text x="450" y="54" font-size="12" fill="#64748b" text-anchor="middle">Khi user mở schoolrecords.github.io/hsstieuhoc/ (không có ?school=) → trang này tự hiện</text>

  <!-- Browser frame -->
  <rect x="100" y="80" width="700" height="450" rx="10" fill="#fff" stroke="#cbd5e1" stroke-width="2"/>
  <rect x="100" y="80" width="700" height="40" fill="#f1f5f9"/>
  <circle cx="120" cy="100" r="5" fill="#ef4444"/>
  <circle cx="136" cy="100" r="5" fill="#f59e0b"/>
  <circle cx="152" cy="100" r="5" fill="#10b981"/>
  <rect x="180" y="90" width="600" height="20" rx="10" fill="#fff"/>
  <text x="195" y="104" font-size="11" fill="#0f172a" font-family="monospace">🔒 https://schoolrecords.github.io/hsstieuhoc/</text>

  <!-- Page content -->
  <rect x="200" y="150" width="500" height="370" rx="12" fill="#fff" stroke="#e2e8f0" stroke-width="1"/>

  <text x="450" y="180" font-size="20" font-weight="700" fill="#1e3a8a" text-anchor="middle">🏫 Hệ thống Hồ sơ số Tiểu học</text>
  <text x="450" y="200" font-size="13" fill="#64748b" text-anchor="middle">Chọn trường của bạn để vào hệ thống</text>

  <!-- Search -->
  <rect x="220" y="220" width="460" height="40" rx="8" fill="#fff" stroke="#cbd5e1" stroke-width="1.5"/>
  <text x="235" y="245" font-size="13" fill="#94a3b8">🔍 Tìm theo tên trường hoặc xã...</text>

  <!-- Group: Tỉnh Nghệ An -->
  <text x="220" y="290" font-size="11" font-weight="700" fill="#64748b" letter-spacing="1">TỈNH NGHỆ AN (2)</text>

  <rect x="220" y="300" width="460" height="60" rx="8" fill="#fff" stroke="#1e3a8a" stroke-width="2"/>
  <text x="235" y="324" font-size="14" font-weight="700" fill="#0f172a">TH Diễn Liên</text>
  <text x="235" y="344" font-size="12" fill="#64748b">Xã Quảng Châu</text>
  <text x="660" y="335" font-size="18" font-weight="700" fill="#1e3a8a" text-anchor="end">→</text>

  <rect x="220" y="370" width="460" height="60" rx="8" fill="#dcfce7" stroke="#10b981" stroke-width="2"/>
  <text x="235" y="394" font-size="14" font-weight="700" fill="#065f46">TH Thái Sơn</text>
  <text x="235" y="414" font-size="12" fill="#047857">Xã Đô Lương</text>
  <text x="660" y="405" font-size="18" font-weight="700" fill="#0d9488" text-anchor="end">→</text>
  <text x="565" y="394" font-size="10" fill="#065f46" font-style="italic">đang trỏ chuột</text>

  <!-- Tooltip arrow -->
  <path d="M 685 400 L 720 400" stroke="#dc2626" stroke-width="2" fill="none" stroke-dasharray="3,3"/>
  <text x="725" y="395" font-size="11" font-weight="700" fill="#dc2626">Click trường</text>
  <text x="725" y="410" font-size="11" fill="#dc2626">muốn vào</text>

  <text x="450" y="470" font-size="11" fill="#94a3b8" text-anchor="middle" font-style="italic">v1.0 · cập nhật 2026-05-11</text>

  <!-- Bottom info -->
  <rect x="100" y="540" width="700" height="14" fill="#f8fafc"/>
</svg>
